<svg xmlns="http://www.w3.org/2000/svg" version="1.1" xmlns:xlink="http://www.w3.org/1999/xlink" width="512" height="512" x="0" y="0" viewBox="0 0 512 512" style="enable-background:new 0 0 512 512" xml:space="preserve" class=""><g><g fill-rule="evenodd"><path fill="#006694" d="M7.481 191.161 145.646 31.388a2.044 2.044 0 0 1 2.839-.2l204.636 176.981a1.994 1.994 0 0 1 .2 2.84L215.154 370.782a2.01 2.01 0 0 1-2.811.2L7.679 194a2.046 2.046 0 0 1-.2-2.84z" opacity="1" data-original="#006694"></path><path fill="#005c85" d="m99.165 115.946 96.454-43.983 157.5 136.206a1.994 1.994 0 0 1 .2 2.84L215.154 370.782a2.01 2.01 0 0 1-2.811.2l-9.824-8.489L95.1 126.877a8.252 8.252 0 0 1 4.061-10.931z" opacity="1" data-original="#005c85"></path><path fill="#60b7ff" d="M101.777 121.624 293.948 34a2.03 2.03 0 0 1 2.669.993L408.858 281.17a2.049 2.049 0 0 1-.994 2.669l-192.2 87.624a2.006 2.006 0 0 1-2.64-.994L100.783 124.293a2.007 2.007 0 0 1 .994-2.669z" opacity="1" data-original="#60b7ff"></path><path fill="#56a5e6" d="M215.864 91.47H322.37l86.488 189.7a2.049 2.049 0 0 1-.994 2.669l-192.2 87.624a2.006 2.006 0 0 1-2.64-.994L207.6 358.6V99.733a8.253 8.253 0 0 1 8.263-8.263z" opacity="1" data-original="#56a5e6"></path><path fill="#eaf6ff" d="M215.864 97.717h157.274l55.936 55.936v216.618a2 2 0 0 1-1.987 2.015H215.864a2.023 2.023 0 0 1-2.016-2.015V99.733a2.024 2.024 0 0 1 2.016-2.016z" opacity="1" data-original="#eaf6ff"></path><path fill="#bec7cf" d="M373.138 97.717V141.1a12.592 12.592 0 0 0 12.551 12.55h43.385z" opacity="1" data-original="#bec7cf"></path><path fill="#ffba57" d="M264.219 288.467H429.3a31.69 31.69 0 0 1 31.574 31.575v129.675a31.671 31.671 0 0 1-31.574 31.574H136.673a31.652 31.652 0 0 1-31.573-31.574V256.893a25.969 25.969 0 0 1 25.924-25.923h55.141c9.114 0 15.333 5.622 21.863 11.982l34.329 33.533c6.53 6.36 12.749 11.982 21.863 11.982z" opacity="1" data-original="#ffba57"></path><path fill="#e6a74e" d="M429.074 293.777a31.555 31.555 0 0 1 14.141 26.265v129.675a31.671 31.671 0 0 1-31.574 31.574H429.3a31.671 31.671 0 0 0 31.574-31.574V320.042a31.626 31.626 0 0 0-31.574-31.575h-17.659a31.2 31.2 0 0 1 17.433 5.31zm-186.718-17.292-28.508-27.826-5.821-5.707c-6.53-6.36-12.749-11.982-21.863-11.982H168.5c9.114 0 15.333 5.622 21.863 11.982l23.482 22.942 10.855 10.591c6.53 6.36 12.748 11.982 21.863 11.982h17.661c-9.114 0-15.333-5.622-21.863-11.982z" opacity="1" data-original="#e6a74e"></path><path fill="#25c73b" d="M445.231 381.685a59.77 59.77 0 1 0-59.77-59.769 59.881 59.881 0 0 0 59.77 59.769z" opacity="1" data-original="#25c73b" class=""></path><path fill="#21b335" d="M440.177 262.345a59.782 59.782 0 0 1 3.038 118.8 55.007 55.007 0 0 1-3.038.341c.993.085 2.016.142 3.038.17.653.029 1.334.029 2.016.029a59.77 59.77 0 0 0 0-119.539c-1.7 0-3.408.057-5.054.2z" opacity="1" data-original="#21b335"></path><path fill="#d3dde6" d="M416.3 153.653v115.932a59.248 59.248 0 0 1 12.777-5.224V153.653z" opacity="1" data-original="#d3dde6"></path></g><path d="M241.67 146.473a7 7 0 0 1 7-7h92.576a7 7 0 1 1 0 14h-92.574a7 7 0 0 1-7.002-7zm7 41.073h146.207a7 7 0 1 0 0-14H248.672a7 7 0 0 0 0 14zm146.205 20.039H248.672a7 7 0 1 0 0 14h146.205a7 7 0 1 0 0-14zm0 34.042H248.672a7 7 0 1 0 0 14h146.205a7 7 0 1 0 0-14zm73.046 143.307V449.8a38.566 38.566 0 0 1-38.521 38.516H137.276A38.566 38.566 0 0 1 98.754 449.8V281.82L2.421 198.51a7 7 0 0 1-.715-9.876L142.27 26.1a7 7 0 0 1 9.876-.715l50.36 43.563L293.218 27.6a7 7 0 0 1 9.275 3.466l27.5 60.332h43.372a7.009 7.009 0 0 1 4.951 2.05l55.84 55.841a7 7 0 0 1 2.051 4.951v101.945a66.66 66.66 0 0 1 31.718 128.749zM422.2 259.688v-98.447h-36.31a19.552 19.552 0 0 1-19.53-19.53V105.4H221.348v140.72l26.323 25.733c5.966 5.837 10.672 9.967 16.931 9.967h127.739a66.968 66.968 0 0 1 29.859-22.132zm-41.836-117.977a5.533 5.533 0 0 0 5.527 5.527H412.3L380.364 115.3zm-87.709-98.465-88.05 40.138a7.062 7.062 0 0 1-.818.372l-93.887 42.8 44.6 97.867h32.177c8.705 0 15.371 3.963 20.663 8.36V98.4a7 7 0 0 1 7-7H314.6zM98.754 263.307v-6a32.932 32.932 0 0 1 32.91-32.88h7.453l-44.862-98.43a7 7 0 0 1 3.467-9.274l90.767-41.377-40.209-34.788L16.877 192.5zm355.166 125a66.557 66.557 0 0 1-75.257-66.1 66.276 66.276 0 0 1 5.458-26.389H264.6c-12.454 0-20.7-8.068-26.721-13.958l-28.246-27.61a7.058 7.058 0 0 1-.371-.363l-5.621-5.5c-6.178-6.018-10.7-9.967-16.959-9.967h-55.018a18.914 18.914 0 0 0-18.907 18.88v192.5a24.546 24.546 0 0 0 24.519 24.518H429.4a24.546 24.546 0 0 0 24.52-24.518zM498 322.213a52.665 52.665 0 1 0-52.666 52.665A52.726 52.726 0 0 0 498 322.213zm-17.02-26.465a7 7 0 0 0-9.9 0L433 333.826l-13.418-13.417a7 7 0 0 0-9.9 9.9l18.369 18.367a7 7 0 0 0 9.9 0l43.029-43.026a7 7 0 0 0 0-9.902zm-64.532 134.857H150.229a7 7 0 0 0 0 14h266.219a7 7 0 0 0 0-14zM150.229 396.79h68.284a7 7 0 1 0 0-14h-68.284a7 7 0 0 0 0 14z" fill="#000000" opacity="1" data-original="#000000" class=""></path></g></svg>