<svg xmlns="http://www.w3.org/2000/svg" version="1.1" xmlns:xlink="http://www.w3.org/1999/xlink" width="512" height="512" x="0" y="0" viewBox="0 0 512 512" style="enable-background:new 0 0 512 512" xml:space="preserve" class="hovered-paths"><g><path d="M295.732 312.379a19.81 19.81 0 0 1-15.907-19.423V248.3h-87.642v44.656a19.812 19.812 0 0 1-15.907 19.423l-10.677 2.146v71.712h140.81v-71.712l-10.677-2.146z" style="" fill="#fce0a2" data-original="#fce0a2"></path><path d="M237.162 248.3v61.155a19.812 19.812 0 0 0 15.907 19.423l53.341 13.002v-27.355l-10.677-2.146a19.81 19.81 0 0 1-15.907-19.423V248.3h-42.664z" style="" fill="#f2ca91" data-original="#f2ca91"></path><path d="m386.971 336.457-88.995-27.748a6.56 6.56 0 0 0-6.038 1.13l-55.934 44.516-55.934-44.516a6.56 6.56 0 0 0-6.038-1.13l-88.995 27.748c-38.969 11.474-65.725 47.244-65.725 87.867v58.555a8.44 8.44 0 0 0 8.44 8.44h416.503a8.44 8.44 0 0 0 8.44-8.44v-58.555c.001-40.623-26.755-76.393-65.724-87.867z" style="" fill="#4cbad8" data-original="#4cbad8"></path><path d="m386.971 336.457-88.995-27.748a6.56 6.56 0 0 0-6.038 1.13l-25.385 20.204 77.398 24.132c38.969 11.474 65.725 47.244 65.725 87.866v49.277h34.58a8.44 8.44 0 0 0 8.44-8.44v-58.555c0-40.622-26.756-76.392-65.725-87.866z" style="" fill="#37a6c4" data-original="#37a6c4"></path><path d="M347.495 201.707h-17.804v-51.634h17.804c9.175 0 16.612 7.438 16.612 16.612v18.409c.001 9.176-7.437 16.613-16.612 16.613zM124.513 201.707h17.804v-51.634h-17.804c-9.175 0-16.612 7.438-16.612 16.612v18.409c0 9.176 7.437 16.613 16.612 16.613z" style="" fill="#f2ca8f" data-original="#f2ca8f"></path><path d="M236.004 283.3c-57.411 0-103.952-46.541-103.952-103.952v-29.214c0-57.411 46.541-103.952 103.952-103.952s103.952 46.541 103.952 103.952v29.214c0 57.411-46.541 103.952-103.952 103.952z" style="" fill="#fce0a2" data-original="#fce0a2"></path><path d="M236.004 46.182c-7.353 0-14.525.768-21.446 2.22 47.121 9.884 82.506 51.673 82.506 101.732v29.214c0 50.058-35.385 91.848-82.506 101.732a104.358 104.358 0 0 0 21.446 2.22c57.411 0 103.952-46.541 103.952-103.952v-29.214c0-57.411-46.541-103.952-103.952-103.952z" style="" fill="#f2ca91" data-original="#f2ca91"></path><path d="M253.693 7.499h-35.377c-59.806 0-108.288 48.482-108.288 108.288v42.779c2.846-5.065 8.262-8.493 14.485-8.493h7.54c.007-12.646 2.275-24.763 6.417-35.972 45.965-13.023 92.683 22.519 143.488 22.519 25.375 0 42.697-5.679 54.411-12.623l.271-.003a104.135 104.135 0 0 1 3.315 26.079h7.54c6.224 0 11.64 3.428 14.485 8.493v-42.779c.001-59.806-48.481-108.288-108.287-108.288z" style="" fill="#f9a058" data-original="#f9a058" class="hovered-path"></path><path d="M253.693 7.499h-35.377c-1.258 0-2.51.029-3.758.072 58.065 1.981 104.53 49.668 104.53 108.216v15.757c6.794-2.11 12.512-4.719 17.281-7.546l.271-.003a104.135 104.135 0 0 1 3.315 26.079h7.54c6.224 0 11.64 3.428 14.485 8.493v-42.779c.001-59.807-48.481-108.289-108.287-108.289z" style="" fill="#ef8d43" data-original="#ef8d43"></path><circle cx="403.809" cy="415.63" r="88.87" style="" fill="#e9f6ff" data-original="#e9f6ff"></circle><path d="M403.814 326.758c-7.443 0-14.67.92-21.578 2.644 38.654 9.642 67.293 44.588 67.293 86.228s-28.639 76.585-67.293 86.228a89.072 89.072 0 0 0 21.578 2.644c49.082 0 88.871-39.789 88.871-88.871s-39.789-88.873-88.871-88.873z" style="" fill="#ccdfed" data-original="#ccdfed"></path><path d="m236.004 354.355-22.674 19.83a9.48 9.48 0 0 1-12.941-.43l-55.885-55.839 29.528-9.207a6.56 6.56 0 0 1 6.038 1.13l55.934 44.516z" style="" fill="#2195bd" data-original="#2195bd"></path><path d="m236.004 354.355 22.674 19.83a9.48 9.48 0 0 0 12.941-.43l55.885-55.839-29.528-9.207a6.56 6.56 0 0 0-6.038 1.13l-55.934 44.516z" style="" fill="#2195bd" data-original="#2195bd"></path><path d="M449.505 409.715h-38.191v-38.191a7.5 7.5 0 0 0-14.998 0v38.191h-38.191a7.5 7.5 0 0 0 0 14.998h38.191v38.192a7.5 7.5 0 0 0 14.998 0v-38.192h38.191a7.5 7.5 0 0 0 0-14.998z" fill="#000000" opacity="1" data-original="#000000"></path><path d="M403.814 319.259a96.011 96.011 0 0 0-30.712 5.018l-43.363-13.52-.002-.001-29.528-9.206c-3.021-.943-6.21-.805-9.094.272-2.368-2.292-3.789-5.494-3.789-8.866v-14.698c27.106-14.121 47.713-39.057 56.064-69.051h4.108c13.295 0 24.111-10.817 24.111-24.112v-18.409c0-3.521-.765-6.865-2.128-9.884v-41.014c0-16.983-3.594-33.349-10.684-48.643a7.5 7.5 0 1 0-13.608 6.307c6.167 13.304 9.293 27.548 9.293 42.336v27.822a24.24 24.24 0 0 0-1.641-.431l-.099-.023a23.925 23.925 0 0 0-3.639-.522 24.672 24.672 0 0 0-1.569-.059l-.039-.001h-.294a114.77 114.77 0 0 0-.245-2.991l-.04-.439c-.015-.156-.037-.313-.053-.469-.081-.794-.171-1.586-.269-2.378l-.093-.739c-.122-.934-.255-1.866-.4-2.795l-.025-.172-.011-.067a112.968 112.968 0 0 0-.612-3.48l-.101-.529c-.018-.091-.039-.18-.057-.271-.143-.717-.293-1.433-.45-2.147-.014-.066-.027-.133-.042-.199l-.12-.553c-.018-.079-.039-.156-.057-.235-.23-1.002-.469-2.001-.726-2.996a7.467 7.467 0 0 0-.894-2.053c-.044-.071-.076-.152-.122-.222-.076-.115-.172-.212-.255-.322-1.385-1.851-3.572-3.023-5.989-3.023h-.096l-.271.003a7.502 7.502 0 0 0-3.729 1.048c-12.956 7.681-29.976 11.575-50.587 11.575-2.603 0-5.205-.102-7.804-.292-5.021-.367-10.034-1.071-15.03-2.004-.176-.033-.353-.061-.53-.094-9.493-1.805-18.921-4.452-28.228-7.287-3.367-1.026-6.72-2.074-10.052-3.118-27.359-8.575-55.647-17.443-83.89-9.44a7.5 7.5 0 0 0-4.99 4.616l-.015.044a107.217 107.217 0 0 0-1.181 3.381c-.081.242-.16.485-.239.727l-.067.203-.118.364c-.25.783-.493 1.581-.73 2.388-.118.4-.23.8-.343 1.201-.067.237-.137.47-.202.709l-.117.434c-.047.174-.083.345-.13.519-.278 1.047-.54 2.097-.787 3.152-.06.256-.134.514-.192.77l-.038.18c-.042.188-.079.373-.12.561a108.722 108.722 0 0 0-.825 4.089l-.034.204c-.054.301-.101.603-.152.904-.124.736-.244 1.501-.361 2.289-.074.498-.151.996-.218 1.496l-.027.19a120.176 120.176 0 0 0-.458 4.043c-.012.122-.026.24-.037.362l-.061.679c-.038.439-.066.852-.099 1.274-.023.304-.057.606-.077.91h-.293l-.041.002a24.576 24.576 0 0 0-1.949.087 24.003 24.003 0 0 0-3.252.492l-.111.026c-.552.126-1.097.267-1.634.43v-27.823C117.525 60.213 162.738 15 218.313 15h35.377c27.915 0 53.878 11.153 73.106 31.406a7.5 7.5 0 0 0 10.878-10.327C315.587 12.812 285.761 0 253.693 0h-35.377c-63.845 0-115.787 51.942-115.787 115.787v41.017a23.96 23.96 0 0 0-2.127 9.882v18.409c0 13.295 10.817 24.112 24.111 24.112h4.108c8.351 29.994 28.958 54.93 56.063 69.051v14.698c0 3.372-1.422 6.574-3.79 8.866a14.03 14.03 0 0 0-9.094-.273l-88.938 27.73c-14.309 4.222-27.176 11.414-38.24 21.376a7.5 7.5 0 1 0 10.036 11.147c9.4-8.463 20.333-14.57 32.497-18.151l.114-.035 55.14-17.192 52.679 52.636c3.292 3.289 7.645 4.951 12.008 4.951a16.93 16.93 0 0 0 11.171-4.181l17.737-15.512 17.737 15.512a16.923 16.923 0 0 0 11.171 4.182c4.362 0 8.716-1.662 12.007-4.951l52.679-52.636 23.421 7.303a96.23 96.23 0 0 0-16.067 12.568c-.335.324-.671.648-1.001.977-16.16 16.044-26.677 37.76-28.286 61.876l-.031.48c-.049.797-.088 1.597-.118 2.399-.009.231-.019.461-.026.692a97.06 97.06 0 0 0-.048 2.911c0 .828.011 1.654.031 2.478l.004.119c.658 25.08 10.829 48.337 28.179 65.593H83.029v-68.19a7.5 7.5 0 0 0-14.998 0v68.19H27.753a.941.941 0 0 1-.94-.941v-58.555c0-12.68 2.77-24.893 8.233-36.299a7.498 7.498 0 0 0-3.523-10.003 7.5 7.5 0 0 0-10.004 3.524c-6.439 13.445-9.704 27.838-9.704 42.778v58.555c0 8.789 7.15 15.94 15.939 15.94h327.462c14.276 8.371 30.885 13.18 48.598 13.18 53.139 0 96.371-43.232 96.371-96.371s-43.233-96.37-96.371-96.37zM346.481 194.08c.305-2.299.538-4.62.7-6.961.019-.266.034-.532.051-.797.055-.887.099-1.777.134-2.669.011-.3.025-.601.034-.901.034-1.131.057-2.265.057-3.404v-21.775h.04l.025.001c.366.001.728.029 1.086.073.095.012.188.029.281.043.295.046.586.104.872.179.071.018.143.035.213.055a9.138 9.138 0 0 1 2.076.88l.11.067c.298.178.585.373.861.584.031.023.062.045.092.069a9.115 9.115 0 0 1 1.701 1.754c.226.306.438.624.627.96l.01.016a9.053 9.053 0 0 1 1.157 4.431v18.409c0 5.025-4.088 9.113-9.113 9.113h-1.03l.016-.127zm-221.968.128c-5.025 0-9.113-4.088-9.113-9.113v-18.409a8.977 8.977 0 0 1 1.788-5.397l.104-.139a9.113 9.113 0 0 1 1.598-1.62c.035-.028.072-.053.107-.08.27-.206.552-.397.843-.572l.124-.076a9.103 9.103 0 0 1 2.067-.876c.073-.021.147-.038.22-.057.284-.073.573-.131.865-.177.095-.015.19-.032.286-.044a9.032 9.032 0 0 1 1.082-.073l.029-.001.04 21.775c0 1.14.023 2.275.057 3.407.009.298.023.596.034.894.034.894.078 1.785.134 2.674.017.266.032.531.051.797.162 2.341.395 4.662.7 6.961.006.042.009.085.015.127l-1.031-.001zm17.122 5.104a83.336 83.336 0 0 1-.463-2.335 93.308 93.308 0 0 1-.413-2.399 98.443 98.443 0 0 1-.243-1.63c-.039-.276-.079-.552-.116-.829a100.5 100.5 0 0 1-.221-1.811c-.026-.233-.055-.466-.08-.7a95.994 95.994 0 0 1-.182-1.929c-.018-.205-.038-.41-.055-.616-.053-.663-.095-1.327-.135-1.991-.011-.193-.026-.385-.037-.579a98.366 98.366 0 0 1-.082-2.033c-.006-.182-.016-.363-.021-.546a95.605 95.605 0 0 1-.035-2.568v-29.155l.001-.115v-.001c.001-1.065.028-2.126.063-3.186.01-.286.015-.558.028-.852l.004-.087c.04-.947.099-1.891.166-2.833.029-.394.058-.791.093-1.203.079-.935.168-1.869.274-2.8.04-.355.085-.696.128-1.043a91.97 91.97 0 0 1 .322-2.34c.052-.351.103-.711.156-1.046.157-.978.332-1.952.519-2.923.047-.242.09-.479.139-.724.201-1.001.421-1.998.654-2.993.066-.279.132-.558.201-.84.23-.941.473-1.88.732-2.814.275-.999.576-1.988.88-2.967.084-.271.159-.544.246-.814l.055-.169.021-.062a66.898 66.898 0 0 1 4.284-.801c16.088-2.474 32.655.832 49.825 5.74 5.759 1.646 11.585 3.47 17.485 5.319 21.146 6.628 43.011 13.481 66.13 13.481 1.226 0 2.441-.014 3.646-.039 17.5-.368 32.804-3.407 45.671-9.062.021.133.037.269.057.403.147.963.28 1.928.398 2.896.046.379.087.757.128 1.136a101.544 101.544 0 0 1 .333 3.628c.059.814.105 1.63.144 2.446.014.296.032.597.043.889l.009.229c.041 1.139.068 2.279.068 3.421v.014l.001.081v29.186c0 .856-.012 1.712-.035 2.568-.005.182-.015.363-.021.546a98.366 98.366 0 0 1-.082 2.033c-.01.193-.026.386-.037.579a101.81 101.81 0 0 1-.134 1.991c-.016.206-.037.41-.055.616a95.314 95.314 0 0 1-.183 1.929c-.025.234-.054.466-.08.7a100.5 100.5 0 0 1-.221 1.811c-.037.277-.077.553-.116.829-.077.544-.157 1.087-.243 1.63-.054.339-.111.676-.168 1.014a102.386 102.386 0 0 1-.708 3.72c-8.721 41.272-43.909 72.896-86.906 76.202-.13.01-.26.017-.389.026-.678.049-1.358.094-2.04.13-.337.017-.676.027-1.014.041-.491.02-.981.043-1.474.056a98.083 98.083 0 0 1-5.094 0c-.493-.013-.983-.036-1.474-.056-.338-.014-.676-.023-1.014-.041a91.492 91.492 0 0 1-2.04-.13c-.13-.009-.26-.016-.389-.026-42.995-3.306-78.183-34.93-86.904-76.202zm66.759 169.227a1.986 1.986 0 0 1-2.705-.089l-47.106-47.068 17.206-5.365 48.513 38.61-15.908 13.912zm-15.214-57.852c4.14-4.84 6.503-11.066 6.503-17.731v-8.211c1.929.667 3.877 1.258 5.835 1.815l.051.014c1.634.464 3.279.888 4.932 1.276l.694.161c1.437.327 2.882.625 4.332.894.302.056.603.117.906.171a112.08 112.08 0 0 0 4.244.664 111.198 111.198 0 0 0 5.098.585c.456.041.912.086 1.369.122 1.243.098 2.493.173 3.747.23.335.015.671.026 1.007.038 1.363.05 2.73.084 4.106.084s2.742-.034 4.106-.084c.336-.012.672-.023 1.007-.038a112.94 112.94 0 0 0 3.747-.23c.457-.036.913-.081 1.369-.122a111.198 111.198 0 0 0 5.098-.585 109.517 109.517 0 0 0 4.244-.664c.303-.054.604-.114.906-.171 1.451-.269 2.895-.567 4.332-.894l.694-.161c1.653-.388 3.298-.812 4.932-1.276l.051-.014a110.763 110.763 0 0 0 5.835-1.815v8.211c0 6.665 2.363 12.891 6.502 17.731l-42.824 34.083-42.823-34.083zm73.138 57.763a1.985 1.985 0 0 1-2.702.089l-15.909-13.914 29.992-23.87 17.814-14.177.001-.001.705-.561 17.207 5.365-47.108 47.069zm137.496 128.551c-43.36 0-78.9-34.092-81.242-76.877-.013-.237-.023-.475-.034-.712a81.793 81.793 0 0 1-.096-3.782c0-1.247.039-2.484.094-3.717.021-.455.052-.909.081-1.363a78.7 78.7 0 0 1 .171-2.241c.053-.578.105-1.156.17-1.731.059-.53.132-1.055.201-1.581 2.097-15.78 8.79-30.431 18.902-42.268.366-.427.731-.857 1.106-1.276.328-.368.664-.731.998-1.093a81.712 81.712 0 0 1 1.748-1.833c.198-.201.394-.404.594-.604 14.718-14.617 34.974-23.665 57.307-23.665 44.869 0 81.372 36.503 81.372 81.372s-36.503 81.371-81.372 81.371z" fill="#000000" opacity="1" data-original="#000000"></path></g></svg>