<svg xmlns="http://www.w3.org/2000/svg" version="1.1" xmlns:xlink="http://www.w3.org/1999/xlink" width="512" height="512" x="0" y="0" viewBox="0 0 512 512" style="enable-background:new 0 0 512 512" xml:space="preserve"><g><g data-name="Layer 2"><g data-name="Layer 1"><g data-name="119"><path fill="#0593fc" d="M382.79 512H23A23 23 0 0 1 .77 483.18l6.13-23.37a107.4 107.4 0 0 1 103.88-80.11H295a107.4 107.4 0 0 1 103.88 80.11l6.12 23.37A23 23 0 0 1 382.79 512z" opacity="1" data-original="#0593fc"></path><path fill="#0584e3" d="M35 483.17A23 23 0 0 0 57.26 512H23A23 23 0 0 1 .77 483.17l6.13-23.36a107.39 107.39 0 0 1 103.88-80.11H145a107.38 107.38 0 0 0-103.83 80.11z" opacity="1" data-original="#0584e3"></path><path fill="#056bb8" d="M93.84 464.25V512H67.32v-47.75a13.26 13.26 0 1 1 26.52 0zM338.47 464.25V512H312v-47.75a13.26 13.26 0 0 1 26.52 0z" opacity="1" data-original="#056bb8"></path><path fill="#f6a76e" d="M239.08 319v35c0 16.9 17 25.74 17 25.74-35.87 33-71.32 33.81-106.34 0 0 0 17-8.84 17-25.74v-35z" opacity="1" data-original="#f6a76e"></path><path fill="#883f2e" d="M350.64 128.63c0 71-71.53 128.52-159.76 128.52s-138.63-60.07-145.7-122C37.12 64.65 84.42-3 172.6.1c116.14 4.13 178.04 57.55 178.04 128.53z" opacity="1" data-original="#883f2e"></path><path fill="#6b3125" d="M218.5 255.24a198.7 198.7 0 0 1-27.62 1.91c-88.24 0-138.63-60.07-145.71-122C37.12 64.65 84.42-3 172.6.11q12.87.45 24.85 1.71c-69.22 11-105.25 71.09-98.13 133.36 6.32 55.4 47.36 109.35 119.18 120.06z" opacity="1" data-original="#6b3125"></path><path fill="#ffbc85" d="M343.75 219.86a32.66 32.66 0 0 1-32.68 32.68H87.64a32.69 32.69 0 1 1 0-65.37h223.43a32.68 32.68 0 0 1 32.68 32.69z" opacity="1" data-original="#ffbc85"></path><path fill="#f1a96e" d="M199.35 187.17v65.37H87.64a32.69 32.69 0 1 1 0-65.37z" opacity="1" data-original="#f1a96e"></path><path fill="#fed2a5" d="M311.83 167.73v55.74A112.48 112.48 0 0 1 199.36 336 112.48 112.48 0 0 1 86.88 223.47V158.9a18.76 18.76 0 0 1 5.35-13.12c5.1-5.21 13-10.36 25-13.7 0 0 18.1-6 29.62-33.07a3.6 3.6 0 0 1 5.53-1.43c13.81 10.84 64.93 46.73 138.6 48.81a21.38 21.38 0 0 1 20.85 21.34z" opacity="1" data-original="#fed2a5"></path><path fill="#ffbc85" d="M209.17 335.51c-3.23.29-6.51.44-9.82.44A112.48 112.48 0 0 1 86.88 223.47V158.9a18.78 18.78 0 0 1 5.35-13.12c5.1-5.21 13-10.36 25-13.7 0 0 18.11-6 29.62-33.06a3.6 3.6 0 0 1 5.53-1.44 210.58 210.58 0 0 0 27 17.73c-10.7 16.23-22.79 20.25-22.79 20.25-12.06 3.34-19.91 8.48-25 13.7a18.75 18.75 0 0 0-5.36 13.12V227a112.56 112.56 0 0 0 83 108.56z" opacity="1" data-original="#ffbc85"></path><circle cx="394" cy="394" r="118" fill="#e991f5" opacity="1" data-original="#e991f5"></circle><path fill="#d261e8" d="M512 394a118 118 0 0 1-118 118V276a118 118 0 0 1 118 118z" opacity="1" data-original="#d261e8"></path><path fill="#d8e6eb" d="M466.28 424.13 437 453.43a12.71 12.71 0 0 1-18 0l-29.3-29.3a12.71 12.71 0 0 1 0-18 12.71 12.71 0 0 1 18 0l7.61 7.61v-70.18a12.71 12.71 0 1 1 25.41 0v70.21l7.61-7.61a12.71 12.71 0 0 1 18 18z" opacity="1" data-original="#d8e6eb"></path><path fill="#fff5f5" d="m321.72 363.87 29.3-29.3a12.71 12.71 0 0 1 18 0l29.3 29.3a12.71 12.71 0 0 1 0 18 12.71 12.71 0 0 1-18 0l-7.61-7.61v70.21a12.71 12.71 0 1 1-25.41 0v-70.24l-7.61 7.61a12.71 12.71 0 0 1-18-18z" opacity="1" data-original="#fff5f5"></path></g></g></g></g></svg>