<svg xmlns="http://www.w3.org/2000/svg" version="1.1" xmlns:xlink="http://www.w3.org/1999/xlink" width="512" height="512" x="0" y="0" viewBox="0 0 1707 1707" style="enable-background:new 0 0 512 512" xml:space="preserve" fill-rule="evenodd"><g><path fill="#ffffff" d="M1316 107c-136 0-247 111-247 248 0 136 110 247 247 247 136 0 247-111 247-247 0-137-111-248-247-248z" opacity="1" data-original="#ffffff"></path><g fill="#eb6773"><path d="M1316 196c-11 0-20-9-20-20V87c0-26 40-26 40 0v89c0 11-9 20-20 20zM1583 375h-88c-27 0-27-40 0-40h88c26 0 26 40 0 40zM1316 642c-11 0-20-9-20-20v-88c0-27 40-27 40 0v88c0 11-9 20-20 20zM1137 375h-88c-27 0-27-40 0-40h88c26 0 26 40 0 40zM1316 376h-97c-26 0-26-40 0-40h77v-95c0-27 40-27 40 0v115c0 11-9 20-20 20z" fill="#eb6773" opacity="1" data-original="#eb6773"></path></g><path fill="#3b7ac8" d="M1316 642c-159 0-287-129-287-287 0-159 128-288 287-288 158 0 287 129 287 288 0 158-129 287-287 287zm0-535c-136 0-247 111-247 248 0 136 110 247 247 247 136 0 247-111 247-247 0-137-111-248-247-248z" opacity="1" data-original="#3b7ac8"></path><path fill="#e9f1ff" d="M803 950h16c117 0 306 101 314 215l1 293c0 10-7 17-17 17H210c-9 0-16-7-16-17l1-293c0-126 204-215 314-215h16l139 161z" opacity="1" data-original="#e9f1ff"></path><path fill="#f66b51" d="M751 1475H588l27-200c4-29 40 0 85-16 11-4 22 3 23 13z" opacity="1" data-original="#f66b51"></path><path fill="#f55a3e" d="M681 1297h-31c-64 0-98-81-61-85v-67h182l-24 69c28 12-8 83-66 83z" opacity="1" data-original="#f55a3e"></path><path fill="#cdd5f6" d="M803 950c52 1 88 5 147 30l-157 307c-5 9-19 12-27 2l-114-144c-6-8-5-18 3-24z" opacity="1" data-original="#cdd5f6"></path><path fill="#cdd5f6" d="M377 978c61-23 97-27 148-28l148 171c7 6 9 16 3 24l-114 144c-8 10-23 7-28-1z" opacity="1" data-original="#cdd5f6"></path><path fill="#ff9e7c" d="M557 844c-7-13-32-11-32 8v98l139 161 139-161v-98c0-20-28-22-33-5z" opacity="1" data-original="#ff9e7c"></path><path fill="#ffaf8a" d="M664 908c-141 0-255-130-255-290V476c0-19 25-22 32-8l292-66 157 71c9-10 29-6 29 11v134c0 160-115 290-255 290z" opacity="1" data-original="#ffaf8a"></path><path fill="#333333" d="M895 558c-65 0-131-90-157-130-157 133-245-17-297 110-7 17-32 13-32-6 0-26-1-42 0-56 2-63 5-36-54-105-5-6-5-15 0-22 52-64 160-113 255-117 70-3 129 18 172 60 29 3 137 26 137 172v76c0 15-13 18-24 18z" opacity="1" data-original="#333333"></path><path fill="#ff8e70" d="M600 627c-3 0-35-10-55-1-8 3-18 0-22-9-18-39 111-39 93 0-3 6-9 10-16 10zM789 627c-3 0-35-10-55-1s-34-22-14-31c24-11 100-10 85 22-3 6-9 10-16 10zM664 790c-43 0-101-31-78-54 6-7 17-7 23 0 29 27 81 27 109 0 16-16 40 9 24 24-21 20-50 30-78 30z" opacity="1" data-original="#ff8e70"></path><path fill="#495259" d="M1569 1370H986c-12 0-20-9-20-21V982c0-22 17-39 38-39h547c21 0 38 17 38 39v367c0 12-9 21-20 21z" opacity="1" data-original="#495259"></path><path fill="#353f47" d="M1565 1475H990c-102 0-122-145-35-145h645c87 0 67 145-35 145zM1277 1269c-57 0-103-47-103-104s46-104 103-104c58 0 104 47 104 104s-46 104-104 104z" opacity="1" data-original="#353f47"></path><path fill="#95afd1" d="M272 1475H148c-53 0-97-43-97-96v-181c0-32 27-58 59-58h201c32 0 58 26 58 58v181c0 53-43 96-97 96z" opacity="1" data-original="#95afd1"></path><path fill="#d48859" d="M1686 1639H20c-11 0-20-9-20-20v-164c0-10 9-20 20-20h1666c11 0 20 10 20 20v164c0 11-9 20-20 20z" opacity="1" data-original="#d48859"></path><path fill="#879eba" d="M110 1140c-32 0-59 26-59 58v181c0 21 7 40 19 56h9c-5-11-8-24-8-38v-180c0-32 26-59 59-59h201c10 0 20 3 29 8-11-16-29-26-49-26z" opacity="1" data-original="#879eba"></path></g></svg>