<svg xmlns="http://www.w3.org/2000/svg" version="1.1" xmlns:xlink="http://www.w3.org/1999/xlink" width="512" height="512" x="0" y="0" viewBox="0 0 405.333 405" style="enable-background:new 0 0 512 512" xml:space="preserve" class=""><g><path fill="#90caf9" d="M234.668 106.926c0 47.125-38.207 85.332-85.336 85.332S64 154.05 64 106.926c0-47.13 38.203-85.336 85.332-85.336 47.129 0 85.336 38.207 85.336 85.336zm0 0" opacity="1" data-original="#90caf9"></path><path fill="#42a5f5" d="M181.332 213.59h-64c-48.86.062-89.89 36.781-95.36 85.336h254.72c-5.47-48.555-46.5-85.274-95.36-85.336zM320 149.59h64v42.668h-64zm0 0" opacity="1" data-original="#42a5f5" class=""></path><g fill="#1976d2"><path d="M208.535 195.563c39.094-26.083 56.508-74.68 42.883-119.657C237.789 30.926 196.332.168 149.332.168c-46.996 0-88.457 30.758-102.082 75.738-13.629 44.977 3.79 93.574 42.883 119.656C37.332 208.153.059 255.313 0 309.59c.016 5.887 4.781 10.652 10.668 10.668H288c5.883-.016 10.648-4.781 10.668-10.668-.059-54.278-37.336-101.438-90.133-114.028zM64 106.925c0-47.13 38.203-85.336 85.332-85.336 47.129 0 85.336 38.207 85.336 85.336 0 47.125-38.207 85.332-85.336 85.332-47.102-.063-85.27-38.23-85.332-85.332zm-42.027 192c5.468-48.555 46.5-85.274 95.359-85.336h64c48.86.062 89.89 36.781 95.36 85.336zM394.668 128.258H384V117.59c0-17.672-14.328-32-32-32s-32 14.328-32 32v10.668h-10.668c-5.883.015-10.648 4.781-10.664 10.668v64c.016 5.883 4.781 10.648 10.664 10.664h85.336c5.883-.016 10.648-4.781 10.664-10.664v-64c-.016-5.887-4.781-10.653-10.664-10.668zm-53.336-10.668c0-5.89 4.777-10.664 10.668-10.664s10.668 4.773 10.668 10.664v10.668h-21.336zM384 192.258h-64V149.59h64zm0 0" fill="#1976d2" opacity="1" data-original="#1976d2" class=""></path></g></g></svg>