<svg xmlns="http://www.w3.org/2000/svg" version="1.1" xmlns:xlink="http://www.w3.org/1999/xlink" width="512" height="512" x="0" y="0" viewBox="0 0 426.693 426" style="enable-background:new 0 0 512 512" xml:space="preserve" class=""><g><path fill="#90caf9" d="M234.668 107.105c0 47.125-38.207 85.332-85.336 85.332S64 154.23 64 107.106c0-47.128 38.203-85.335 85.332-85.335 47.129 0 85.336 38.207 85.336 85.335zm0 0" opacity="1" data-original="#90caf9"></path><path fill="#42a5f5" d="M181.332 213.77h-64c-48.86.066-89.89 36.78-95.36 85.335h254.72c-5.47-48.554-46.5-85.27-95.36-85.335zM384 160.438c0 17.671-14.328 32-32 32s-32-14.329-32-32 14.328-32 32-32 32 14.328 32 32zm0 0" opacity="1" data-original="#42a5f5"></path><g fill="#1976d2"><path d="M208.535 195.742c39.094-26.082 56.508-74.68 42.883-119.656C237.789 31.106 196.332.348 149.332.348c-46.996 0-88.457 30.757-102.082 75.738-13.629 44.977 3.79 93.574 42.883 119.656C37.332 208.332.059 255.492 0 309.77c.016 5.886 4.781 10.652 10.668 10.668H288c5.883-.016 10.648-4.782 10.668-10.668-.059-54.278-37.336-101.438-90.133-114.028zM64 107.105c0-47.128 38.203-85.335 85.332-85.335 47.129 0 85.336 38.207 85.336 85.335 0 47.125-38.207 85.332-85.336 85.332-47.102-.062-85.27-38.23-85.332-85.332zm-42.027 192c5.468-48.554 46.5-85.27 95.359-85.335h64c48.86.066 89.89 36.78 95.36 85.335zM423.574 216.863 396.48 189.77c15.125-22.899 10.458-53.536-10.804-70.891-21.262-17.356-52.211-15.793-71.621 3.613-19.407 19.41-20.97 50.36-3.614 71.621 17.356 21.262 47.993 25.93 70.891 10.805l27.094 27.094c4.207 4.125 10.941 4.125 15.148 0 4.16-4.192 4.16-10.957 0-15.149zM352 192.438c-17.672 0-32-14.329-32-32s14.328-32 32-32 32 14.328 32 32c-.05 17.652-14.348 31.949-32 32zm0 0" fill="#1976d2" opacity="1" data-original="#1976d2"></path></g></g></svg>