<svg xmlns="http://www.w3.org/2000/svg" version="1.1" xmlns:xlink="http://www.w3.org/1999/xlink" width="512" height="512" x="0" y="0" viewBox="0 0 426.667 426" style="enable-background:new 0 0 512 512" xml:space="preserve" class=""><g><path fill="#90caf9" d="M234.668 107.09c0 47.129-38.207 85.336-85.336 85.336S64 154.219 64 107.09s38.203-85.332 85.332-85.332c47.129 0 85.336 38.203 85.336 85.332zm0 0" opacity="1" data-original="#90caf9"></path><path fill="#42a5f5" d="M181.332 213.758h-64c-48.86.062-89.89 36.781-95.36 85.332h254.72c-5.47-48.55-46.5-85.27-95.36-85.332zM405.121 149.973a24.005 24.005 0 0 1-12.695-12.59 21.714 21.714 0 0 1 .426-17.492 24.177 24.177 0 0 1-17.918.105 22.063 22.063 0 0 1-12.055-12.691v-.215a23.85 23.85 0 0 1-12.48 12.906 21.95 21.95 0 0 1-17.598-.426 23.922 23.922 0 0 1 .105 17.813 21.908 21.908 0 0 1-12.691 12.16 24.012 24.012 0 0 1 12.691 12.59 21.699 21.699 0 0 1-.426 17.492 25.602 25.602 0 0 1 9.282-1.813c2.957.04 5.886.618 8.636 1.708a22.05 22.05 0 0 1 12.055 12.69 24.177 24.177 0 0 1 12.48-12.69 21.96 21.96 0 0 1 17.602.425 23.923 23.923 0 0 1-.11-17.812 21.926 21.926 0 0 1 12.696-12.16zm-42.453 21.117c-11.785 0-21.336-9.55-21.336-21.332s9.55-21.332 21.336-21.332c11.781 0 21.332 9.55 21.332 21.332-.035 11.77-9.566 21.297-21.332 21.332zm0 0" opacity="1" data-original="#42a5f5"></path><g fill="#1976d2"><path d="M208.535 195.73c39.094-26.082 56.508-74.68 42.883-119.66C237.789 31.094 196.332.332 149.332.332 102.336.332 60.875 31.094 47.25 76.07c-13.629 44.98 3.79 93.578 42.883 119.66C37.332 208.32.059 255.477 0 309.758c.016 5.883 4.781 10.648 10.668 10.668H288c5.883-.02 10.648-4.785 10.668-10.668-.059-54.281-37.336-101.438-90.133-114.028zM64 107.09c0-47.13 38.203-85.332 85.332-85.332 47.129 0 85.336 38.203 85.336 85.332s-38.207 85.336-85.336 85.336c-47.102-.063-85.27-38.23-85.332-85.336zm-42.027 192c5.468-48.55 46.5-85.27 95.359-85.332h64c48.86.062 89.89 36.781 95.36 85.332zM426.668 149.758a22.044 22.044 0 0 0-14.508-20.696 21.273 21.273 0 0 0-4.265-24.53 21.536 21.536 0 0 0-24.747-4.266.11.11 0 0 1-.109-.11 21.369 21.369 0 0 0-20.371-14.398 22.044 22.044 0 0 0-20.695 14.508 21.26 21.26 0 0 0-24.532 4.265 21.86 21.86 0 0 0-4.375 24.852 21.374 21.374 0 0 0-14.398 20.375 22.037 22.037 0 0 0 14.504 20.691 21.273 21.273 0 0 0 4.27 24.535 21.907 21.907 0 0 0 24.851 4.375 21.38 21.38 0 0 0 20.375 14.399 22.039 22.039 0 0 0 20.691-14.508 21.268 21.268 0 0 0 24.536-4.266 21.867 21.867 0 0 0 4.37-24.851 21.383 21.383 0 0 0 14.403-20.375zm-34.242 12.375a23.923 23.923 0 0 0 .11 17.812 21.96 21.96 0 0 0-17.602-.425 24.177 24.177 0 0 0-12.48 12.69 22.05 22.05 0 0 0-12.056-12.69 24.324 24.324 0 0 0-8.636-1.708c-3.18.024-6.328.637-9.282 1.813a21.699 21.699 0 0 0 .426-17.492 24.012 24.012 0 0 0-12.691-12.59 21.908 21.908 0 0 0 12.691-12.16 23.922 23.922 0 0 0-.105-17.813 21.95 21.95 0 0 0 17.597.426 23.85 23.85 0 0 0 12.48-12.906v.215a22.063 22.063 0 0 0 12.056 12.691 24.177 24.177 0 0 0 17.918-.105 21.714 21.714 0 0 0-.426 17.492 24.005 24.005 0 0 0 12.695 12.59 21.926 21.926 0 0 0-12.695 12.16zm0 0" fill="#1976d2" opacity="1" data-original="#1976d2" class=""></path><path d="M384 149.758c0 11.781-9.55 21.332-21.332 21.332-11.785 0-21.336-9.55-21.336-21.332s9.55-21.332 21.336-21.332c11.781 0 21.332 9.55 21.332 21.332zm0 0" fill="#1976d2" opacity="1" data-original="#1976d2" class=""></path></g></g></svg>