<svg xmlns="http://www.w3.org/2000/svg" version="1.1" xmlns:xlink="http://www.w3.org/1999/xlink" width="512" height="512" x="0" y="0" viewBox="0 0 68 68" style="enable-background:new 0 0 512 512" xml:space="preserve" class=""><g><path fill="#ffbe00" d="M65.187 36.745C60.46 42.563 48.282 55.6 33.999 55.6c-14.284 0-26.463-13.036-31.189-18.854-1.214-1.495-1.214-3.995 0-5.49C7.536 25.437 19.715 12.4 34 12.4c14.283 0 26.462 13.036 31.188 18.854 1.215 1.495 1.215 3.995 0 5.49z" opacity="1" data-original="#ffbe00"></path><path fill="#ffa300" d="M65.186 36.75C60.46 42.563 48.286 55.596 34 55.596c-1.21 0-2.412-.096-3.587-.272C43.129 53.44 53.706 42.073 58.02 36.75c1.219-1.5 1.219-3.999 0-5.498-4.315-5.324-14.892-16.69-27.61-18.576A24.305 24.305 0 0 1 34 12.403c14.287 0 26.46 13.033 31.187 18.848 1.22 1.5 1.22 3.999 0 5.498z" opacity="1" data-original="#ffa300"></path><path fill="#ffffff" d="M61.197 35.853C57.077 39.78 46.455 48.58 33.999 48.58c-12.457 0-23.078-8.8-27.199-12.727a2.558 2.558 0 0 1 0-3.706c2.75-2.62 8.392-7.41 15.545-10.307 3.566-1.444 7.51-2.42 11.654-2.42 4.147 0 8.09.976 11.66 2.423 7.15 2.898 12.79 7.684 15.538 10.304a2.558 2.558 0 0 1 0 3.706z" opacity="1" data-original="#ffffff"></path><path fill="#079cff" d="M49.085 31.411c0 8.332-6.754 15.087-15.086 15.087s-15.083-6.755-15.083-15.087c0-3.632 1.286-6.968 3.429-9.571 3.566-1.444 7.51-2.42 11.654-2.42 4.147 0 8.09.976 11.66 2.423a15.004 15.004 0 0 1 3.426 9.568z" opacity="1" data-original="#079cff"></path><path fill="#33527d" d="M41.16 31.455A7.165 7.165 0 0 1 34 38.617a7.165 7.165 0 0 1-7.163-7.162A7.165 7.165 0 0 1 34 24.293a7.165 7.165 0 0 1 7.162 7.162z" opacity="1" data-original="#33527d"></path><path fill="#ffffff" d="M43.055 26.937a3.566 3.566 0 0 1-7.13 0 3.566 3.566 0 0 1 7.13 0z" opacity="1" data-original="#ffffff"></path><path fill="#435e88" d="M35.569 3.65v5.29c0 .865-.708 1.565-1.565 1.565h-.008c-.857 0-1.565-.7-1.565-1.565V3.65c0-.864.708-1.564 1.565-1.564h.008c.857 0 1.565.7 1.565 1.565zM24.724 4.09l3.74 3.74a1.569 1.569 0 0 1 0 2.213l-.006.005a1.569 1.569 0 0 1-2.213 0l-3.74-3.74a1.569 1.569 0 0 1 0-2.213l.006-.006a1.569 1.569 0 0 1 2.213 0zM41.755 10.048l3.74-3.74a1.569 1.569 0 0 0 0-2.213l-.006-.006a1.569 1.569 0 0 0-2.213 0l-3.74 3.74a1.569 1.569 0 0 0 0 2.214l.006.005a1.569 1.569 0 0 0 2.213 0zM32.431 64.35v-5.29c0-.865.708-1.565 1.565-1.565h.008c.857 0 1.565.7 1.565 1.565v5.29c0 .864-.708 1.564-1.565 1.564h-.008c-.857 0-1.565-.7-1.565-1.565zM43.276 63.91l-3.74-3.74a1.569 1.569 0 0 1 0-2.213l.006-.005a1.569 1.569 0 0 1 2.213 0l3.74 3.74a1.569 1.569 0 0 1 0 2.213l-.006.006a1.569 1.569 0 0 1-2.213 0zM26.245 57.952l-3.74 3.74a1.569 1.569 0 0 0 0 2.213l.006.006a1.569 1.569 0 0 0 2.213 0l3.74-3.74a1.569 1.569 0 0 0 0-2.214l-.006-.005a1.569 1.569 0 0 0-2.213 0z" opacity="1" data-original="#435e88"></path></g></svg>